<svg xmlns="http://www.w3.org/2000/svg" version="1.1" xmlns:xlink="http://www.w3.org/1999/xlink" xmlns:svgjs="http://svgjs.com/svgjs" width="1440" height="560" preserveAspectRatio="none" viewBox="0 0 1440 560"><g mask="url(&quot;#SvgjsMask1382&quot;)" fill="none"><rect width="1440" height="560" x="0" y="0" fill="url(#SvgjsLinearGradient1383)"></rect><g mask="url(&quot;#SvgjsMask1384&quot;)"><path d="M1275 255L1241 255M1343 255L1309 289L1275 289L1241 289M1207 221L1173 187M1479 289L1445 289L1411 289L1377 255L1343 255L1309 255L1275 255L1241 221L1207 221L1173 221" stroke="#dd1133" stroke-width="5.67"></path><path d="M1164.5 221 a8.5 8.5 0 1 0 17 0 a8.5 8.5 0 1 0 -17 0zM1232.5 255 a8.5 8.5 0 1 0 17 0 a8.5 8.5 0 1 0 -17 0zM1232.5 289 a8.5 8.5 0 1 0 17 0 a8.5 8.5 0 1 0 -17 0zM1164.5 187 a8.5 8.5 0 1 0 17 0 a8.5 8.5 0 1 0 -17 0z" fill="#dd1133"></path><path d="M969 153L935 153L901 153M1241 187L1207 187M867 187L833 221L799 221L765 255L731 255L697 255L663 255M1071 187L1037 187L1003 187M935 187L901 221L867 221L833 255L799 255M1173 153L1139 153L1105 153M1479 255L1445 255L1411 255L1377 221L1343 221L1309 221L1275 221L1241 187L1207 153L1173 153L1139 187L1105 187L1071 187L1037 153L1003 153L969 153L935 187L901 187L867 187L833 187L799 187L765 221L731 221L697 221" stroke="#3a7cc3" stroke-width="5.67"></path><path d="M688.5 221 a8.5 8.5 0 1 0 17 0 a8.5 8.5 0 1 0 -17 0zM892.5 153 a8.5 8.5 0 1 0 17 0 a8.5 8.5 0 1 0 -17 0zM1198.5 187 a8.5 8.5 0 1 0 17 0 a8.5 8.5 0 1 0 -17 0zM654.5 255 a8.5 8.5 0 1 0 17 0 a8.5 8.5 0 1 0 -17 0zM994.5 187 a8.5 8.5 0 1 0 17 0 a8.5 8.5 0 1 0 -17 0zM790.5 255 a8.5 8.5 0 1 0 17 0 a8.5 8.5 0 1 0 -17 0zM1096.5 153 a8.5 8.5 0 1 0 17 0 a8.5 8.5 0 1 0 -17 0z" fill="#3a7cc3"></path><path d="M1377 323L1343 289M1479 323L1445 323L1411 323L1377 323L1343 323L1309 323L1275 323" stroke="#3a7cc3" stroke-width="5.67"></path><path d="M1266.5 323 a8.5 8.5 0 1 0 17 0 a8.5 8.5 0 1 0 -17 0zM1334.5 289 a8.5 8.5 0 1 0 17 0 a8.5 8.5 0 1 0 -17 0z" fill="#3a7cc3"></path><path d="M1003 357L969 391L935 391L901 391L867 391M1207 357L1173 391L1139 391L1105 391L1071 391L1037 391M1105 357L1071 323L1037 323L1003 323L969 289M901 323L867 357L833 357M1479 357L1445 357L1411 357L1377 357L1343 357L1309 357L1275 357L1241 357L1207 357L1173 357L1139 357L1105 357L1071 357L1037 357L1003 357L969 323L935 323L901 323L867 323" stroke="#3a7cc3" stroke-width="5.67"></path><path d="M858.5 323 a8.5 8.5 0 1 0 17 0 a8.5 8.5 0 1 0 -17 0zM858.5 391 a8.5 8.5 0 1 0 17 0 a8.5 8.5 0 1 0 -17 0zM1028.5 391 a8.5 8.5 0 1 0 17 0 a8.5 8.5 0 1 0 -17 0zM960.5 289 a8.5 8.5 0 1 0 17 0 a8.5 8.5 0 1 0 -17 0zM824.5 357 a8.5 8.5 0 1 0 17 0 a8.5 8.5 0 1 0 -17 0z" fill="#3a7cc3"></path><path d="M1445 221L1411 187L1377 153M1479 187L1445 221L1411 221L1377 187" stroke="#dd1133" stroke-width="5.67"></path><path d="M1368.5 187 a8.5 8.5 0 1 0 17 0 a8.5 8.5 0 1 0 -17 0zM1368.5 153 a8.5 8.5 0 1 0 17 0 a8.5 8.5 0 1 0 -17 0z" fill="#dd1133"></path><path d="M1309 391L1275 425M1445 391L1411 425L1377 425L1343 425L1309 425M1479 391L1445 391L1411 391L1377 391L1343 391L1309 391L1275 391L1241 391" stroke="#3a7cc3" stroke-width="5.67"></path><path d="M1232.5 391 a8.5 8.5 0 1 0 17 0 a8.5 8.5 0 1 0 -17 0zM1266.5 425 a8.5 8.5 0 1 0 17 0 a8.5 8.5 0 1 0 -17 0zM1300.5 425 a8.5 8.5 0 1 0 17 0 a8.5 8.5 0 1 0 -17 0z" fill="#3a7cc3"></path><path d="M1445 119L1411 85M1173 119L1139 85L1105 85M1377 119L1343 85L1309 85M1037 119L1003 85L969 85L935 85L901 85M1479 153L1445 119L1411 119L1377 119L1343 119L1309 119L1275 119L1241 119L1207 119L1173 119L1139 119L1105 119L1071 119L1037 119L1003 119L969 119" stroke="#3a7cc3" stroke-width="5.67"></path><path d="M960.5 119 a8.5 8.5 0 1 0 17 0 a8.5 8.5 0 1 0 -17 0zM1402.5 85 a8.5 8.5 0 1 0 17 0 a8.5 8.5 0 1 0 -17 0zM1096.5 85 a8.5 8.5 0 1 0 17 0 a8.5 8.5 0 1 0 -17 0zM1300.5 85 a8.5 8.5 0 1 0 17 0 a8.5 8.5 0 1 0 -17 0zM892.5 85 a8.5 8.5 0 1 0 17 0 a8.5 8.5 0 1 0 -17 0z" fill="#3a7cc3"></path></g></g><defs><mask id="SvgjsMask1382"><rect width="1440" height="560" fill="#ffffff"></rect></mask><linearGradient x1="15.28%" y1="-39.29%" x2="84.72%" y2="139.29%" gradientUnits="userSpaceOnUse" id="SvgjsLinearGradient1383"><stop stop-color="#0e2a47" offset="0"></stop><stop stop-color="rgba(0, 0, 0, 1)" offset="1"></stop></linearGradient><mask id="SvgjsMask1384"><rect width="1440" height="560" fill="white"></rect><path d="M1168.75 221 a4.25 4.25 0 1 0 8.5 0 a4.25 4.25 0 1 0 -8.5 0zM1236.75 255 a4.25 4.25 0 1 0 8.5 0 a4.25 4.25 0 1 0 -8.5 0zM1236.75 289 a4.25 4.25 0 1 0 8.5 0 a4.25 4.25 0 1 0 -8.5 0zM1168.75 187 a4.25 4.25 0 1 0 8.5 0 a4.25 4.25 0 1 0 -8.5 0z" fill="black"></path><path d="M692.75 221 a4.25 4.25 0 1 0 8.5 0 a4.25 4.25 0 1 0 -8.5 0zM896.75 153 a4.25 4.25 0 1 0 8.5 0 a4.25 4.25 0 1 0 -8.5 0zM1202.75 187 a4.25 4.25 0 1 0 8.5 0 a4.25 4.25 0 1 0 -8.5 0zM658.75 255 a4.25 4.25 0 1 0 8.5 0 a4.25 4.25 0 1 0 -8.5 0zM998.75 187 a4.25 4.25 0 1 0 8.5 0 a4.25 4.25 0 1 0 -8.5 0zM794.75 255 a4.25 4.25 0 1 0 8.5 0 a4.25 4.25 0 1 0 -8.5 0zM1100.75 153 a4.25 4.25 0 1 0 8.5 0 a4.25 4.25 0 1 0 -8.5 0z" fill="black"></path><path d="M1270.75 323 a4.25 4.25 0 1 0 8.5 0 a4.25 4.25 0 1 0 -8.5 0zM1338.75 289 a4.25 4.25 0 1 0 8.5 0 a4.25 4.25 0 1 0 -8.5 0z" fill="black"></path><path d="M862.75 323 a4.25 4.25 0 1 0 8.5 0 a4.25 4.25 0 1 0 -8.5 0zM862.75 391 a4.25 4.25 0 1 0 8.5 0 a4.25 4.25 0 1 0 -8.5 0zM1032.75 391 a4.25 4.25 0 1 0 8.5 0 a4.25 4.25 0 1 0 -8.5 0zM964.75 289 a4.25 4.25 0 1 0 8.5 0 a4.25 4.25 0 1 0 -8.5 0zM828.75 357 a4.25 4.25 0 1 0 8.5 0 a4.25 4.25 0 1 0 -8.5 0z" fill="black"></path><path d="M1372.75 187 a4.25 4.25 0 1 0 8.5 0 a4.25 4.25 0 1 0 -8.5 0zM1372.75 153 a4.25 4.25 0 1 0 8.5 0 a4.25 4.25 0 1 0 -8.5 0z" fill="black"></path><path d="M1236.75 391 a4.25 4.25 0 1 0 8.5 0 a4.25 4.25 0 1 0 -8.5 0zM1270.75 425 a4.25 4.25 0 1 0 8.5 0 a4.25 4.25 0 1 0 -8.5 0zM1304.75 425 a4.25 4.25 0 1 0 8.5 0 a4.25 4.25 0 1 0 -8.5 0z" fill="black"></path><path d="M964.75 119 a4.25 4.25 0 1 0 8.5 0 a4.25 4.25 0 1 0 -8.5 0zM1406.75 85 a4.25 4.25 0 1 0 8.5 0 a4.25 4.25 0 1 0 -8.5 0zM1100.75 85 a4.25 4.25 0 1 0 8.5 0 a4.25 4.25 0 1 0 -8.5 0zM1304.75 85 a4.25 4.25 0 1 0 8.5 0 a4.25 4.25 0 1 0 -8.5 0zM896.75 85 a4.25 4.25 0 1 0 8.5 0 a4.25 4.25 0 1 0 -8.5 0z" fill="black"></path></mask></defs></svg>