<svg xmlns="http://www.w3.org/2000/svg" version="1.1" xmlns:xlink="http://www.w3.org/1999/xlink" xmlns:svgjs="http://svgjs.com/svgjs" width="768" height="560" preserveAspectRatio="none" viewBox="0 0 768 560"><g mask="url(&quot;#SvgjsMask1405&quot;)" fill="none"><rect width="768" height="560" x="0" y="0" fill="url(#SvgjsLinearGradient1406)"></rect><g mask="url(&quot;#SvgjsMask1407&quot;)"><path d="M799 289L765 289" stroke="#3a7cc3" stroke-width="5.67"></path><path d="M756.5 289 a8.5 8.5 0 1 0 17 0 a8.5 8.5 0 1 0 -17 0z" fill="#3a7cc3"></path><path d="M799 255L765 255L731 255" stroke="#3a7cc3" stroke-width="5.67"></path><path d="M722.5 255 a8.5 8.5 0 1 0 17 0 a8.5 8.5 0 1 0 -17 0z" fill="#3a7cc3"></path><path d="M799 221L765 221L731 221L697 221L663 255" stroke="#dd1133" stroke-width="5.67"></path><path d="M654.5 255 a8.5 8.5 0 1 0 17 0 a8.5 8.5 0 1 0 -17 0z" fill="#dd1133"></path><path d="M697 391L663 357L629 323L595 323M765 357L731 323L697 323L663 323M731 357L697 357M799 357L765 357L731 357L697 391L663 391L629 391" stroke="#3a7cc3" stroke-width="5.67"></path><path d="M620.5 391 a8.5 8.5 0 1 0 17 0 a8.5 8.5 0 1 0 -17 0zM586.5 323 a8.5 8.5 0 1 0 17 0 a8.5 8.5 0 1 0 -17 0zM654.5 323 a8.5 8.5 0 1 0 17 0 a8.5 8.5 0 1 0 -17 0zM688.5 357 a8.5 8.5 0 1 0 17 0 a8.5 8.5 0 1 0 -17 0z" fill="#3a7cc3"></path><path d="M561 187L527 221M629 187L595 221L561 221L527 255L493 255M663 187L629 221L595 255M799 187L765 187L731 187L697 187L663 187L629 187L595 187L561 187L527 187" stroke="#3a7cc3" stroke-width="5.67"></path><path d="M518.5 187 a8.5 8.5 0 1 0 17 0 a8.5 8.5 0 1 0 -17 0zM518.5 221 a8.5 8.5 0 1 0 17 0 a8.5 8.5 0 1 0 -17 0zM484.5 255 a8.5 8.5 0 1 0 17 0 a8.5 8.5 0 1 0 -17 0zM586.5 255 a8.5 8.5 0 1 0 17 0 a8.5 8.5 0 1 0 -17 0z" fill="#3a7cc3"></path><path d="M765 391L731 425L697 459M799 391L765 391L731 391L697 425" stroke="#dd1133" stroke-width="5.67"></path><path d="M688.5 425 a8.5 8.5 0 1 0 17 0 a8.5 8.5 0 1 0 -17 0zM688.5 459 a8.5 8.5 0 1 0 17 0 a8.5 8.5 0 1 0 -17 0z" fill="#dd1133"></path><path d="M663 153L629 119L595 119M561 153L527 119L493 119L459 119M425 187L391 221M799 153L765 153L731 153L697 153L663 153L629 153L595 153L561 153L527 153L493 153L459 153L425 187L391 187" stroke="#dd1133" stroke-width="5.67"></path><path d="M382.5 187 a8.5 8.5 0 1 0 17 0 a8.5 8.5 0 1 0 -17 0zM586.5 119 a8.5 8.5 0 1 0 17 0 a8.5 8.5 0 1 0 -17 0zM450.5 119 a8.5 8.5 0 1 0 17 0 a8.5 8.5 0 1 0 -17 0zM382.5 221 a8.5 8.5 0 1 0 17 0 a8.5 8.5 0 1 0 -17 0z" fill="#dd1133"></path></g></g><defs><mask id="SvgjsMask1405"><rect width="768" height="560" fill="#ffffff"></rect></mask><linearGradient x1="6.77%" y1="-9.29%" x2="93.23%" y2="109.29%" gradientUnits="userSpaceOnUse" id="SvgjsLinearGradient1406"><stop stop-color="#0e2a47" offset="0"></stop><stop stop-color="rgba(0, 0, 0, 1)" offset="1"></stop></linearGradient><mask id="SvgjsMask1407"><rect width="768" height="560" fill="white"></rect><path d="M760.75 289 a4.25 4.25 0 1 0 8.5 0 a4.25 4.25 0 1 0 -8.5 0z" fill="black"></path><path d="M726.75 255 a4.25 4.25 0 1 0 8.5 0 a4.25 4.25 0 1 0 -8.5 0z" fill="black"></path><path d="M658.75 255 a4.25 4.25 0 1 0 8.5 0 a4.25 4.25 0 1 0 -8.5 0z" fill="black"></path><path d="M624.75 391 a4.25 4.25 0 1 0 8.5 0 a4.25 4.25 0 1 0 -8.5 0zM590.75 323 a4.25 4.25 0 1 0 8.5 0 a4.25 4.25 0 1 0 -8.5 0zM658.75 323 a4.25 4.25 0 1 0 8.5 0 a4.25 4.25 0 1 0 -8.5 0zM692.75 357 a4.25 4.25 0 1 0 8.5 0 a4.25 4.25 0 1 0 -8.5 0z" fill="black"></path><path d="M522.75 187 a4.25 4.25 0 1 0 8.5 0 a4.25 4.25 0 1 0 -8.5 0zM522.75 221 a4.25 4.25 0 1 0 8.5 0 a4.25 4.25 0 1 0 -8.5 0zM488.75 255 a4.25 4.25 0 1 0 8.5 0 a4.25 4.25 0 1 0 -8.5 0zM590.75 255 a4.25 4.25 0 1 0 8.5 0 a4.25 4.25 0 1 0 -8.5 0z" fill="black"></path><path d="M692.75 425 a4.25 4.25 0 1 0 8.5 0 a4.25 4.25 0 1 0 -8.5 0zM692.75 459 a4.25 4.25 0 1 0 8.5 0 a4.25 4.25 0 1 0 -8.5 0z" fill="black"></path><path d="M386.75 187 a4.25 4.25 0 1 0 8.5 0 a4.25 4.25 0 1 0 -8.5 0zM590.75 119 a4.25 4.25 0 1 0 8.5 0 a4.25 4.25 0 1 0 -8.5 0zM454.75 119 a4.25 4.25 0 1 0 8.5 0 a4.25 4.25 0 1 0 -8.5 0zM386.75 221 a4.25 4.25 0 1 0 8.5 0 a4.25 4.25 0 1 0 -8.5 0z" fill="black"></path></mask></defs></svg>