<svg xmlns="http://www.w3.org/2000/svg" version="1.1" xmlns:xlink="http://www.w3.org/1999/xlink" xmlns:svgjs="http://svgjs.com/svgjs" width="992" height="560" preserveAspectRatio="none" viewBox="0 0 992 560"><g mask="url(&quot;#SvgjsMask1395&quot;)" fill="none"><rect width="992" height="560" x="0" y="0" fill="url(#SvgjsLinearGradient1396)"></rect><g mask="url(&quot;#SvgjsMask1397&quot;)"><path d="M731 255L697 255L663 255L629 255L595 255M833 255L799 221M901 255L867 289L833 289M1037 289L1003 255L969 255L935 255L901 255L867 255L833 255L799 255L765 255L731 255L697 289L663 289" stroke="#dd1133" stroke-width="5.67"></path><path d="M654.5 289 a8.5 8.5 0 1 0 17 0 a8.5 8.5 0 1 0 -17 0zM586.5 255 a8.5 8.5 0 1 0 17 0 a8.5 8.5 0 1 0 -17 0zM790.5 221 a8.5 8.5 0 1 0 17 0 a8.5 8.5 0 1 0 -17 0zM824.5 289 a8.5 8.5 0 1 0 17 0 a8.5 8.5 0 1 0 -17 0z" fill="#dd1133"></path><path d="M799 323L765 357L731 391M867 323L833 357L799 357L765 391L731 425M901 323L867 357M1037 323L1003 323L969 323L935 323L901 323L867 323L833 323L799 323L765 323L731 357" stroke="#dd1133" stroke-width="5.67"></path><path d="M722.5 357 a8.5 8.5 0 1 0 17 0 a8.5 8.5 0 1 0 -17 0zM722.5 391 a8.5 8.5 0 1 0 17 0 a8.5 8.5 0 1 0 -17 0zM722.5 425 a8.5 8.5 0 1 0 17 0 a8.5 8.5 0 1 0 -17 0zM858.5 357 a8.5 8.5 0 1 0 17 0 a8.5 8.5 0 1 0 -17 0z" fill="#dd1133"></path><path d="M1037 221L1003 221L969 221" stroke="#dd1133" stroke-width="5.67"></path><path d="M960.5 221 a8.5 8.5 0 1 0 17 0 a8.5 8.5 0 1 0 -17 0z" fill="#dd1133"></path><path d="M935 391L901 357M1003 391L969 425L935 425L901 425M969 391L935 357M1037 357L1003 391L969 391L935 391L901 391" stroke="#dd1133" stroke-width="5.67"></path><path d="M892.5 391 a8.5 8.5 0 1 0 17 0 a8.5 8.5 0 1 0 -17 0zM892.5 357 a8.5 8.5 0 1 0 17 0 a8.5 8.5 0 1 0 -17 0zM892.5 425 a8.5 8.5 0 1 0 17 0 a8.5 8.5 0 1 0 -17 0zM926.5 357 a8.5 8.5 0 1 0 17 0 a8.5 8.5 0 1 0 -17 0z" fill="#dd1133"></path><path d="M935 187L901 221L867 221M1037 187L1003 187L969 187L935 187L901 187L867 187" stroke="#dd1133" stroke-width="5.67"></path><path d="M858.5 187 a8.5 8.5 0 1 0 17 0 a8.5 8.5 0 1 0 -17 0zM858.5 221 a8.5 8.5 0 1 0 17 0 a8.5 8.5 0 1 0 -17 0z" fill="#dd1133"></path><path d="M731 187L697 221M969 153L935 119L901 119L867 119L833 119M765 153L731 153L697 153L663 153M1037 153L1003 153L969 153L935 153L901 153L867 153L833 153L799 153L765 153L731 187L697 187L663 187L629 187L595 187" stroke="#3a7cc3" stroke-width="5.67"></path><path d="M586.5 187 a8.5 8.5 0 1 0 17 0 a8.5 8.5 0 1 0 -17 0zM688.5 221 a8.5 8.5 0 1 0 17 0 a8.5 8.5 0 1 0 -17 0zM824.5 119 a8.5 8.5 0 1 0 17 0 a8.5 8.5 0 1 0 -17 0zM654.5 153 a8.5 8.5 0 1 0 17 0 a8.5 8.5 0 1 0 -17 0z" fill="#3a7cc3"></path></g></g><defs><mask id="SvgjsMask1395"><rect width="992" height="560" fill="#ffffff"></rect></mask><linearGradient x1="10.89%" y1="-19.29%" x2="89.11%" y2="119.29%" gradientUnits="userSpaceOnUse" id="SvgjsLinearGradient1396"><stop stop-color="#0e2a47" offset="0"></stop><stop stop-color="rgba(0, 0, 0, 1)" offset="1"></stop></linearGradient><mask id="SvgjsMask1397"><rect width="992" height="560" fill="white"></rect><path d="M658.75 289 a4.25 4.25 0 1 0 8.5 0 a4.25 4.25 0 1 0 -8.5 0zM590.75 255 a4.25 4.25 0 1 0 8.5 0 a4.25 4.25 0 1 0 -8.5 0zM794.75 221 a4.25 4.25 0 1 0 8.5 0 a4.25 4.25 0 1 0 -8.5 0zM828.75 289 a4.25 4.25 0 1 0 8.5 0 a4.25 4.25 0 1 0 -8.5 0z" fill="black"></path><path d="M726.75 357 a4.25 4.25 0 1 0 8.5 0 a4.25 4.25 0 1 0 -8.5 0zM726.75 391 a4.25 4.25 0 1 0 8.5 0 a4.25 4.25 0 1 0 -8.5 0zM726.75 425 a4.25 4.25 0 1 0 8.5 0 a4.25 4.25 0 1 0 -8.5 0zM862.75 357 a4.25 4.25 0 1 0 8.5 0 a4.25 4.25 0 1 0 -8.5 0z" fill="black"></path><path d="M964.75 221 a4.25 4.25 0 1 0 8.5 0 a4.25 4.25 0 1 0 -8.5 0z" fill="black"></path><path d="M896.75 391 a4.25 4.25 0 1 0 8.5 0 a4.25 4.25 0 1 0 -8.5 0zM896.75 357 a4.25 4.25 0 1 0 8.5 0 a4.25 4.25 0 1 0 -8.5 0zM896.75 425 a4.25 4.25 0 1 0 8.5 0 a4.25 4.25 0 1 0 -8.5 0zM930.75 357 a4.25 4.25 0 1 0 8.5 0 a4.25 4.25 0 1 0 -8.5 0z" fill="black"></path><path d="M862.75 187 a4.25 4.25 0 1 0 8.5 0 a4.25 4.25 0 1 0 -8.5 0zM862.75 221 a4.25 4.25 0 1 0 8.5 0 a4.25 4.25 0 1 0 -8.5 0z" fill="black"></path><path d="M590.75 187 a4.25 4.25 0 1 0 8.5 0 a4.25 4.25 0 1 0 -8.5 0zM692.75 221 a4.25 4.25 0 1 0 8.5 0 a4.25 4.25 0 1 0 -8.5 0zM828.75 119 a4.25 4.25 0 1 0 8.5 0 a4.25 4.25 0 1 0 -8.5 0zM658.75 153 a4.25 4.25 0 1 0 8.5 0 a4.25 4.25 0 1 0 -8.5 0z" fill="black"></path></mask></defs></svg>